<?xml version="1.0" standalone="no"?>
<!DOCTYPE svg PUBLIC "-//W3C//DTD SVG 20010904//EN"
 "http://www.w3.org/TR/2001/REC-SVG-20010904/DTD/svg10.dtd">
<svg version="1.0" xmlns="http://www.w3.org/2000/svg"
 width="400.000000pt" height="400.000000pt" viewBox="0 0 400.000000 400.000000"
 preserveAspectRatio="xMidYMid meet">
<metadata>
Created by potrace 1.14, written by Peter Selinger 2001-2017
</metadata>
<g transform="translate(0.000000,400.000000) scale(0.100000,-0.100000)"
fill="#000000" stroke="none">
<path d="M0 2000 l0 -2000 2000 0 2000 0 0 792 c-1 600 -4 796 -13 807 -9 12
-9 13 1 7 8 -5 12 0 12 14 0 19 -1 20 -16 6 -9 -9 -13 -24 -9 -35 3 -11 1 -22
-5 -26 -6 -3 -8 -11 -4 -16 3 -5 10 -7 15 -4 5 4 9 -1 9 -10 0 -9 -4 -14 -9
-10 -5 3 -13 0 -17 -6 -4 -7 -3 -9 3 -6 6 4 13 0 17 -8 6 -18 -10 -30 -18 -13
-3 7 -4 2 -3 -12 1 -14 8 -24 15 -22 8 1 11 -2 7 -8 -3 -6 -10 -8 -15 -5 -4 3
-11 -2 -14 -11 -4 -9 -2 -13 5 -8 8 4 9 -1 4 -15 -4 -14 -2 -23 8 -27 20 -7
17 -55 -3 -51 -8 1 -16 -6 -18 -15 -2 -13 3 -18 20 -18 18 0 20 -2 8 -10 -8
-5 -11 -12 -7 -16 4 -4 2 -13 -4 -21 -6 -7 -9 -22 -6 -33 3 -11 1 -23 -5 -26
-12 -8 -1 -56 15 -66 9 -6 8 -8 -1 -8 -7 0 -10 -5 -6 -12 4 -7 3 -8 -4 -4 -7
4 -18 28 -26 54 -8 26 -15 39 -15 29 -1 -10 6 -33 13 -52 8 -19 12 -35 9 -35
-4 0 2 -7 13 -16 10 -8 14 -13 9 -11 -16 8 -48 -20 -42 -37 5 -13 0 -13 -40
-1 -26 8 -50 12 -54 9 -4 -2 -20 1 -35 6 -28 11 -57 -1 -35 -14 6 -4 11 -17
11 -29 -1 -19 -3 -18 -14 8 -7 17 -11 35 -9 41 4 10 -37 34 -58 34 -5 0 -2
-12 7 -28 l16 -27 -21 26 c-15 20 -27 25 -46 21 -26 -5 -33 -26 -13 -38 6 -4
8 -3 4 4 -3 6 -3 13 2 16 4 2 9 -10 10 -29 2 -18 -2 -36 -8 -40 -13 -8 -40 12
-40 29 0 6 5 4 10 -4 8 -12 10 -10 10 9 0 18 -4 22 -19 18 -14 -3 -17 0 -14
13 5 18 36 34 60 31 6 -1 15 4 19 10 4 7 3 9 -3 6 -6 -4 -23 5 -37 18 -31 29
-36 30 -36 10 0 -8 8 -15 18 -16 14 0 14 -2 -3 -8 -11 -5 -21 -13 -21 -20 -4
-31 -6 -34 -13 -16 -4 11 -7 37 -5 57 1 21 -1 38 -5 38 -4 0 -7 16 -8 35 -1
38 -17 65 -39 65 -8 0 -22 9 -31 20 -10 11 -23 20 -30 20 -16 0 -78 61 -183
180 -41 47 -136 146 -210 221 -118 118 -146 141 -221 179 l-87 44 -6 51 c-9
77 -7 151 5 182 l11 28 12 -40 c20 -63 56 -126 92 -162 41 -39 83 -68 90 -60
3 2 -11 14 -30 26 -22 14 -43 39 -57 71 -12 27 -25 48 -28 46 -3 -2 -6 9 -6
24 l0 29 28 -27 c15 -14 53 -69 84 -122 64 -107 106 -153 155 -169 66 -21 106
-20 175 5 71 26 113 54 81 54 -9 0 -20 -4 -23 -10 -17 -28 -101 -2 -147 47
-28 30 -81 153 -92 216 -4 21 -10 45 -13 53 -4 11 3 10 31 -6 67 -37 87 -53
101 -79 10 -19 14 -21 15 -9 0 27 -65 122 -112 163 -47 40 -167 95 -208 95
-14 0 -39 -4 -56 -9 l-30 -8 2 115 c2 63 7 145 13 181 14 86 35 338 35 421 0
113 -31 257 -63 288 -10 9 -26 37 -35 62 -9 25 -29 59 -44 77 -15 17 -34 39
-43 50 -42 51 -141 128 -195 154 -34 16 -64 29 -68 29 -13 0 -65 60 -53 60 20
1 -65 28 -123 39 -30 6 -80 13 -110 16 -30 3 -62 8 -70 10 -8 2 -40 7 -70 10
-30 3 -64 8 -75 11 -28 7 -73 -5 -249 -66 -81 -28 -150 -49 -153 -46 -3 3 7
10 22 16 15 6 26 12 24 15 -5 5 -54 -12 -124 -45 -27 -12 -78 -35 -113 -51
-35 -16 -67 -29 -71 -29 -4 0 -44 -36 -89 -80 -44 -44 -86 -80 -91 -80 -6 0
-11 -6 -11 -13 0 -8 -9 -22 -20 -32 -11 -10 -20 -23 -20 -29 0 -7 -13 -27 -30
-46 -25 -31 -29 -43 -30 -98 0 -34 4 -70 9 -80 27 -56 47 -89 59 -101 18 -18
11 -111 -11 -156 -9 -16 -18 -52 -21 -80 -12 -91 -17 -120 -28 -142 -13 -26 2
-69 40 -121 13 -18 22 -35 21 -36 -8 -7 -77 -36 -132 -56 -69 -26 -76 -53 -14
-58 32 -3 37 -7 37 -28 0 -53 63 -154 96 -154 6 0 19 -11 28 -25 17 -26 21
-39 8 -31 -4 2 -14 1 -22 -5 -10 -5 -11 -9 -3 -9 7 0 10 -7 7 -15 -5 -11 -2
-13 10 -9 9 3 13 10 10 15 -3 5 0 9 6 9 6 0 10 -10 9 -22 -2 -13 3 -34 10 -47
11 -19 11 -25 0 -33 -11 -8 -10 -9 4 -4 9 3 17 1 17 -4 0 -5 11 -33 24 -62 45
-100 54 -127 52 -152 -2 -17 2 -26 10 -26 8 0 16 -12 20 -27 3 -16 10 -41 16
-56 6 -15 8 -30 5 -34 -3 -3 0 -12 8 -20 8 -8 15 -23 15 -34 0 -21 -31 -40
-37 -22 -4 12 -43 5 -43 -7 0 -5 6 -10 13 -13 24 -8 -5 -22 -49 -22 -35 0 -44
-4 -44 -17 0 -10 -7 -18 -16 -18 -8 0 -13 -4 -10 -8 6 -10 -98 -72 -120 -72
-8 0 -14 -7 -14 -15 0 -8 -7 -15 -15 -15 -8 0 -15 -8 -15 -18 0 -10 -5 -23
-10 -28 -6 -6 -8 -18 -4 -27 5 -13 9 -14 24 -4 26 16 37 1 17 -21 -10 -10 -17
-22 -17 -27 0 -4 13 8 30 26 l30 34 0 -32 c0 -29 -5 -35 -48 -57 -27 -13 -54
-31 -61 -40 -7 -9 -17 -14 -21 -11 -5 3 -11 1 -15 -5 -3 -5 2 -10 12 -10 10 0
14 -4 8 -8 -5 -4 -11 -20 -12 -37 -9 -107 -21 -155 -38 -155 -7 0 -16 6 -19
13 -3 6 -2 -8 1 -32 6 -42 -8 -68 -29 -55 -12 8 -9 24 4 22 6 -2 14 6 16 17 4
17 3 18 -14 5 -16 -14 -17 -13 -11 20 5 25 4 31 -3 20 -9 -13 -11 -13 -20 0
-5 8 -10 29 -10 45 0 21 -3 26 -9 16 -5 -7 -14 -10 -20 -7 -6 4 -8 12 -4 19
11 19 9 56 -4 61 -6 3 -13 -5 -16 -17 -3 -21 -4 -21 -15 5 -6 15 -9 35 -5 44
6 15 7 15 19 -1 7 -9 17 -14 23 -11 5 4 14 -2 20 -11 9 -15 10 -13 11 14 0 17
-4 34 -9 37 -5 4 -7 -3 -4 -14 4 -17 2 -19 -13 -13 -11 4 -25 13 -32 20 -16
15 -32 17 -32 3 0 -5 -4 -10 -10 -10 -5 0 -7 6 -4 14 3 8 -4 21 -18 30 -13 9
-30 32 -37 52 -13 37 -7 60 9 34 8 -13 10 -12 10 2 0 9 -6 19 -13 22 -8 3 -6
10 8 23 11 10 29 30 40 43 11 14 1 8 -22 -14 -23 -21 -46 -35 -52 -32 -7 4 -9
1 -5 -8 3 -9 2 -16 -4 -16 -5 0 -12 -9 -15 -20 -3 -11 -10 -20 -16 -20 -12 0
-3 31 12 41 10 7 -18 56 -42 75 -8 6 -11 16 -7 22 4 7 2 12 -3 12 -7 0 -9 14
-5 35 3 23 1 35 -6 35 -7 0 -10 -7 -6 -15 3 -10 -1 -15 -11 -15 -9 0 -13 -3
-10 -7 4 -3 1 -13 -6 -22 -10 -14 -10 -14 4 -3 15 11 18 9 27 -17 6 -16 7 -33
4 -37 -4 -4 -2 -4 4 -1 17 10 26 -23 12 -41 -11 -13 -10 -15 3 -10 13 5 16 2
12 -13 -5 -18 -7 -18 -23 -4 -21 19 -27 19 -27 0 0 -8 6 -15 13 -15 25 0 27
-23 3 -41 -20 -16 -21 -19 -6 -19 10 0 16 -4 12 -9 -3 -5 -1 -12 5 -16 5 -3
10 1 10 10 0 9 5 13 10 10 6 -4 8 -21 4 -41 -4 -24 -2 -34 6 -34 7 0 10 6 7
14 -4 9 2 16 15 19 15 4 19 11 15 26 -3 12 -2 21 1 21 17 -1 42 -29 44 -51 2
-13 11 -27 21 -31 10 -4 15 -13 12 -18 -5 -8 -11 -8 -20 0 -10 8 -15 7 -19 -8
-4 -11 -4 -26 -1 -33 3 -9 -11 -25 -37 -43 -24 -15 -33 -25 -20 -21 16 5 22 2
22 -9 0 -17 1 -18 40 -20 25 -1 40 -12 40 -31 0 -5 -4 -4 -8 2 -6 9 -17 10
-41 3 -19 -5 -38 -7 -44 -3 -5 3 -7 0 -5 -8 3 -8 11 -13 17 -11 15 3 14 -13
-2 -27 -10 -8 -19 -7 -33 4 -10 8 -25 15 -31 15 -19 0 -16 -20 5 -27 25 -9 32
-24 26 -53 -3 -14 -2 -20 3 -14 7 10 43 16 43 7 0 -1 -9 -12 -20 -23 -11 -11
-20 -17 -20 -13 0 4 -6 -1 -13 -12 -8 -10 -19 -15 -25 -11 -7 4 -12 3 -12 -3
0 -5 -15 -9 -32 -9 -18 0 -71 -3 -118 -6 -57 -4 -80 -2 -70 4 13 9 13 11 0 21
-12 8 -9 9 10 4 l25 -7 -28 24 c-20 16 -26 28 -22 40 4 10 11 15 16 12 5 -3 9
-1 9 5 0 5 -5 13 -11 17 -6 3 -8 15 -6 26 4 13 1 18 -8 15 -9 -4 -11 1 -8 14
7 24 -12 25 -26 1 -6 -9 -11 -12 -11 -6 0 19 26 35 45 27 13 -4 16 -3 11 6 -4
7 2 20 16 31 13 11 18 19 13 20 -6 0 -17 -6 -24 -12 -12 -11 -13 -10 -7 6 5
16 4 17 -9 6 -13 -11 -14 -10 -8 5 5 14 3 17 -9 13 -9 -4 -15 0 -15 8 0 15 19
19 31 7 14 -14 35 -11 29 4 -6 16 7 15 69 -3 11 -3 18 0 18 9 0 8 -8 14 -18
14 -45 0 -52 4 -61 40 -6 21 -12 49 -13 62 -3 23 -4 24 -18 6 -9 -11 -10 -16
-3 -11 9 5 13 1 13 -12 0 -12 -9 -22 -22 -25 -33 -9 -37 -1 -20 37 9 19 19 33
24 30 4 -3 8 -1 8 5 0 5 -6 12 -12 14 -8 3 -5 6 6 6 17 1 18 6 11 58 -5 32 -8
66 -9 75 0 9 -4 14 -8 12 -4 -3 -9 3 -9 13 -3 46 -7 64 -13 70 -14 14 -17 -8
-6 -42 7 -20 10 -45 7 -56 -3 -10 -1 -17 4 -13 5 3 9 -1 9 -9 0 -8 -7 -18 -16
-21 -8 -3 -12 -2 -9 4 3 6 2 10 -3 10 -5 0 -8 10 -8 22 1 13 -2 31 -6 41 -5 9
-5 17 0 17 4 0 6 15 4 33 -3 25 0 34 12 35 9 1 23 3 31 4 8 1 15 5 15 11 0 5
-6 7 -13 4 -16 -6 -47 11 -47 26 0 7 4 6 10 -3 8 -12 10 -12 11 5 0 11 3 14 6
8 9 -24 20 -13 15 17 -2 17 -13 35 -23 41 -22 12 -26 34 -4 25 8 -3 15 -1 15
3 0 5 -6 11 -13 14 -6 2 -9 8 -5 12 4 4 15 -3 25 -14 21 -25 29 -26 37 -5 4
12 2 15 -9 10 -12 -4 -14 0 -11 21 5 27 -10 67 -22 59 -5 -3 -14 -1 -22 4 -9
6 -3 8 21 8 57 -1 73 2 65 9 -4 4 -22 6 -41 5 -26 -2 -33 1 -29 12 3 8 -4 20
-15 28 -12 8 -18 18 -14 22 4 4 0 4 -10 0 -22 -8 -22 0 0 26 23 26 33 25 65
-5 30 -28 59 -36 38 -10 -6 8 -9 19 -6 24 4 5 2 13 -4 16 -6 4 -10 3 -9 -2 5
-28 -4 -22 -21 12 -10 22 -22 38 -27 36 -4 -2 -12 6 -18 17 -5 12 -16 23 -25
26 -11 3 -10 4 3 5 11 1 15 6 11 13 -5 8 0 9 15 5 16 -4 21 -1 19 11 -2 10 3
16 9 14 7 -1 13 2 13 8 0 13 -17 13 -25 0 -9 -14 -25 -12 -25 3 0 6 -7 24 -14
40 -8 15 -11 27 -6 27 8 0 2 37 -10 55 -3 6 -6 17 -5 25 1 8 3 26 3 39 2 17 5
21 14 14 9 -6 22 -5 38 3 14 8 22 14 18 15 -5 1 -12 3 -18 4 -5 1 -15 3 -21 4
-5 0 -7 6 -4 11 3 6 -3 10 -14 10 -27 0 -27 12 0 28 29 18 7 46 -30 37 -14 -3
-21 -2 -16 2 6 4 16 16 24 26 12 15 12 17 -3 11 -11 -4 -16 -1 -16 10 0 9 -7
19 -15 22 -8 4 -15 11 -15 16 0 6 8 4 17 -3 15 -12 16 -12 10 4 -3 9 -2 17 3
17 5 0 8 14 6 30 -3 26 -1 29 12 18 13 -11 14 -10 3 10 -6 12 -9 22 -5 22 3 0
1 7 -6 15 -7 8 -10 15 -6 15 3 0 1 11 -4 25 -5 14 -6 25 -1 25 11 0 25 -30 22
-47 -1 -6 2 -14 7 -17 4 -2 9 6 10 20 1 13 -3 24 -9 24 -6 0 -9 9 -6 20 6 24
-12 38 -24 19 -6 -10 -9 -6 -9 14 0 24 9 32 33 28 16 -2 6 10 -16 19 -13 5
-16 9 -7 9 9 1 16 11 17 24 2 21 1 21 -13 3 -13 -18 -19 -15 -15 7 1 5 -3 6
-8 3 -23 -15 -33 66 -11 87 10 10 12 8 7 -6 -5 -14 -3 -16 12 -8 10 6 22 7 26
3 5 -4 5 -1 1 6 -4 7 -2 20 5 28 10 12 9 13 -5 8 -9 -3 -16 -11 -16 -16 0 -6
-7 -5 -16 3 -13 10 -17 10 -26 -2 -7 -11 -8 -9 -3 6 4 11 8 27 10 35 2 8 4 16
4 18 1 2 9 -4 18 -14 12 -12 18 -13 21 -4 2 6 -1 17 -7 23 -15 15 -14 30 2 21
8 -6 8 -3 -1 9 -8 9 -10 22 -6 28 4 8 3 9 -4 5 -7 -4 -12 -14 -12 -22 0 -8 -4
-14 -10 -14 -6 0 -6 9 0 26 12 32 12 34 0 34 -5 0 -9 -5 -7 -11 1 -6 -3 -13
-8 -15 -6 -2 -11 15 -12 40 -2 37 1 45 22 54 14 7 25 17 25 24 0 10 -3 9 -9
-1 -8 -12 -12 -12 -26 2 -15 16 -15 17 7 18 l23 0 -22 11 c-26 13 -30 25 -8
25 8 0 15 -4 15 -8 0 -12 34 -3 38 9 2 7 -3 15 -12 18 -12 4 -13 11 -6 24 8
15 6 17 -12 12 l-21 -5 21 21 c23 23 38 29 27 12 -3 -6 1 -7 9 -4 19 7 11 24
-10 24 -9 0 -14 7 -12 18 2 11 11 16 26 14 12 -2 22 0 21 5 -1 4 0 10 1 13 3
8 8 42 13 85 2 22 11 57 20 78 9 21 12 35 7 32 -6 -3 -10 -1 -10 4 0 6 9 11
20 11 20 0 23 18 5 33 -6 5 0 7 13 4 12 -3 20 -1 17 4 -8 12 24 71 34 64 5 -2
11 9 14 25 5 23 11 28 27 25 17 -3 19 -1 10 16 -9 15 -7 21 5 25 8 3 22 3 31
0 14 -5 15 -4 5 8 -15 18 4 33 23 17 13 -11 26 -5 26 11 0 5 -4 7 -9 3 -5 -3
-13 0 -17 6 -4 8 -3 9 4 5 7 -4 12 -3 12 3 0 6 7 8 15 4 10 -3 15 -1 13 7 -2
7 3 15 11 18 9 3 11 0 6 -9 -4 -8 4 -2 19 13 16 17 33 25 46 23 12 -2 18 0 15
6 -4 5 -10 7 -15 4 -4 -3 -11 3 -14 12 -4 10 -4 14 0 11 4 -4 15 -3 25 3 14 7
19 7 17 -2 -2 -6 4 -14 12 -17 8 -2 12 -1 8 3 -4 5 -3 14 3 22 10 11 15 11 27
1 13 -11 14 -11 7 1 -6 11 -4 13 8 8 11 -4 17 -1 17 8 0 8 5 15 11 15 6 0 8
-8 5 -17 -5 -15 -4 -15 9 1 8 11 15 15 15 9 0 -7 9 -11 21 -10 18 1 19 3 4 13
-13 10 -14 17 -6 31 9 15 10 16 11 2 0 -9 9 -19 19 -22 14 -3 18 -1 14 9 -3 8
-9 11 -14 8 -5 -3 -9 -1 -9 5 0 14 37 23 62 15 21 -6 22 -5 8 11 -9 11 -10 16
-2 11 6 -4 12 -2 12 3 0 8 -121 11 -385 11 l-385 0 0 -2000z m134 1429 c-3 -6
0 -15 7 -20 9 -6 10 -9 2 -9 -15 0 -26 17 -18 30 3 6 8 10 11 10 3 0 2 -5 -2
-11z m2 -81 c4 -7 3 -8 -4 -4 -8 4 -12 0 -12 -10 0 -13 -3 -15 -11 -7 -12 12
-4 33 11 33 5 0 12 -5 16 -12z m1281 -180 c12 -12 25 -40 28 -61 7 -34 25 -62
25 -38 0 6 5 11 11 11 6 0 27 14 46 30 40 36 66 40 34 6 l-23 -24 24 -1 c77
-3 147 -14 183 -30 34 -15 47 -29 71 -77 26 -54 29 -68 28 -164 0 -91 -3 -112
-25 -155 l-24 -50 -115 1 c-63 0 -128 4 -143 9 -25 7 -28 5 -25 -10 1 -10 19
-31 40 -47 30 -25 45 -30 90 -30 51 1 52 0 28 -13 -22 -12 -22 -14 -5 -15 15
0 16 -3 7 -12 -24 -24 -11 -29 17 -6 22 19 40 25 75 24 46 -1 61 8 29 18 -10
3 46 4 123 2 120 -3 148 -6 185 -24 24 -12 50 -31 57 -42 11 -18 10 -20 -12
-20 -24 0 -41 -24 -30 -41 3 -6 19 -7 35 -4 25 6 29 4 29 -15 0 -69 -72 -137
-180 -171 -120 -38 -252 -28 -368 27 -42 20 -52 30 -47 44 4 13 0 20 -14 25
-27 8 -56 54 -42 68 7 7 13 4 18 -10 6 -16 13 -19 31 -12 26 10 28 22 7 43 -9
8 -12 22 -9 33 6 16 5 15 -9 -2 -13 -16 -16 -17 -17 -4 0 18 22 40 65 62 42
23 26 21 -29 -3 -26 -11 -49 -26 -52 -34 -4 -12 -12 -12 -51 0 -25 8 -59 14
-75 14 -46 0 -108 70 -108 122 0 23 -2 24 -59 20 -35 -3 -79 2 -110 11 -37 11
-62 13 -84 6 -39 -11 -62 11 -52 51 3 14 8 39 11 55 11 65 15 79 23 67 4 -8
10 -5 19 8 10 16 9 18 -3 14 -9 -4 -15 0 -15 10 0 22 21 108 31 128 5 9 13 44
18 78 12 75 23 90 67 90 37 0 44 13 17 28 -12 7 -8 9 18 7 19 -2 36 -3 38 -4
3 -1 -4 -11 -15 -23 -36 -41 -51 -72 -69 -143 -27 -109 -32 -191 -17 -265 16
-73 37 -130 25 -65 -5 22 -8 76 -7 120 1 157 88 344 170 369 12 4 40 2 63 -3
44 -10 45 -5 7 38 -20 23 -20 23 -1 13 11 -5 30 -21 42 -34z m682 -37 c20 -11
45 -22 56 -26 16 -5 17 -8 5 -15 -8 -5 -18 -6 -22 -4 -4 3 -13 2 -18 -1 -6 -3
3 -17 19 -30 15 -14 31 -37 34 -52 3 -16 9 -37 13 -48 11 -32 -10 -6 -37 45
-13 25 -26 47 -29 50 -3 3 -20 24 -37 47 -47 60 -44 65 16 34z m-2053 -178
c-10 -10 -19 5 -10 18 6 11 8 11 12 0 2 -7 1 -15 -2 -18z m1918 -17 c14 -25
26 -52 26 -60 0 -9 4 -16 8 -16 5 0 7 -15 6 -32 -3 -29 -3 -30 5 -8 8 25 8 24
24 -14 10 -21 17 -52 17 -68 0 -37 -28 -136 -41 -144 -5 -3 -7 -10 -4 -15 4
-5 -15 2 -41 16 -31 17 -63 25 -95 25 l-49 0 21 53 c26 63 38 113 48 192 l7
60 23 -60 c26 -68 45 -173 39 -215 -3 -19 0 -27 9 -26 21 3 22 9 24 84 1 45 6
72 13 72 6 0 4 5 -6 10 -9 6 -19 29 -23 53 -4 23 -15 63 -25 90 -10 26 -17 47
-15 47 2 0 15 -20 29 -44z m173 -189 c7 -29 16 -97 20 -152 l6 -99 -26 17
c-14 9 -33 17 -41 17 -8 0 -28 11 -44 25 l-30 25 19 37 c10 21 19 44 20 53 2
30 17 -36 18 -78 1 -30 5 -42 13 -40 20 7 30 76 25 171 -5 96 1 103 20 24z
m107 17 c9 -3 16 -12 16 -20 0 -7 7 -17 16 -22 8 -5 16 -15 17 -23 2 -13 25
-48 56 -85 6 -7 7 -15 4 -18 -6 -5 1 -23 27 -76 10 -21 -60 -51 -136 -57 -75
-7 -81 3 -53 78 12 31 23 91 26 141 3 48 7 88 9 88 1 0 9 -3 18 -6z m485 -213
c23 -22 41 -48 41 -59 0 -11 4 -22 10 -24 5 -1 16 -28 24 -58 15 -59 17 -49
-32 -160 -10 -25 -23 -55 -27 -68 -7 -25 -70 -92 -85 -92 -5 0 -15 -9 -22 -19
-23 -33 -86 -63 -129 -63 -22 1 -37 -3 -34 -9 19 -29 115 4 178 62 28 27 55
48 59 49 3 0 9 -28 13 -62 10 -100 45 -267 66 -315 10 -25 19 -58 19 -73 0
-69 -70 -170 -236 -340 -80 -83 -130 -141 -127 -150 3 -10 2 -11 -4 -3 -6 8
-29 -7 -78 -53 -39 -35 -81 -74 -94 -85 l-24 -22 6 54 c8 68 -8 43 -18 -27 -6
-46 -13 -58 -72 -118 -36 -36 -97 -90 -137 -119 -139 -105 -203 -129 -226 -88
-10 19 -50 181 -50 203 0 14 28 -23 70 -94 18 -31 37 -55 42 -52 5 3 -12 35
-37 70 -25 36 -54 83 -66 105 -15 31 -99 237 -99 245 0 0 21 4 48 7 44 5 134
41 175 69 28 20 231 227 236 241 2 7 -50 -40 -115 -104 -66 -64 -134 -124
-152 -133 -38 -20 -165 -46 -221 -46 -21 0 -61 7 -89 15 -77 23 -115 68 -138
165 -14 62 -53 147 -84 188 -15 18 -20 20 -32 9 -7 -7 -29 -19 -48 -27 -19 -7
-41 -18 -49 -24 -14 -11 -21 -15 -87 -54 -22 -12 -47 -28 -56 -34 -14 -10 -21
-10 -34 3 -14 15 -11 19 37 49 29 17 91 52 138 77 47 25 95 52 106 59 27 20
33 18 30 -11 -4 -30 -6 -29 36 -9 56 25 84 43 82 51 -3 17 234 20 251 3 5 -5
22 -10 37 -10 15 0 31 -4 34 -10 3 -5 16 -10 28 -10 43 0 -6 26 -109 58 -110
35 -130 37 -188 21 -27 -8 -41 -8 -49 0 -23 23 -97 3 -97 -26 0 -12 -43 -43
-59 -43 -5 0 -25 46 -44 103 -19 56 -60 163 -91 238 -31 75 -58 154 -60 177
l-4 40 30 -10 c30 -11 126 -5 166 9 12 5 -21 8 -81 8 -92 0 -105 2 -136 24
-19 14 -31 19 -27 12 10 -16 -44 18 -62 39 -35 42 -56 133 -29 129 49 -6 64
15 22 31 -14 5 -25 12 -25 15 0 9 82 45 103 45 12 0 17 -8 17 -25 0 -14 -4
-25 -10 -25 -5 0 -10 -4 -10 -10 0 -5 6 -10 13 -10 11 0 13 -21 12 -95 -2 -52
1 -95 6 -95 5 0 9 41 9 90 0 83 2 90 20 90 13 0 18 -5 13 -15 -6 -16 23 -55
40 -55 6 0 0 12 -14 27 l-24 27 34 -24 c40 -27 83 -29 149 -6 48 17 49 16 32
-56 -5 -24 -21 -95 -34 -158 -14 -63 -32 -135 -41 -159 -21 -61 -19 -78 14
-112 24 -23 38 -29 73 -29 24 0 53 -7 64 -15 24 -18 34 -19 34 -1 0 20 -55 39
-94 33 -28 -4 -38 -1 -60 22 -26 27 -26 27 -11 85 8 32 26 119 40 194 37 207
43 222 74 222 42 0 102 -20 108 -36 3 -7 6 -25 7 -38 0 -13 4 -22 9 -19 4 2 7
1 8 -4 5 -58 17 -76 44 -69 14 4 25 2 25 -3 0 -16 85 -51 151 -63 83 -15 133
-13 216 8 126 31 195 82 218 162 15 50 17 52 53 52 20 0 64 9 96 20 33 11 73
20 91 20 19 0 39 8 50 20 10 11 27 20 38 20 11 0 44 23 73 50 65 62 88 64 143
11z m-2659 -15 c0 -3 -4 -8 -10 -11 -5 -3 -10 -1 -10 4 0 6 5 11 10 11 6 0 10
-2 10 -4z m1203 -46 c31 -12 57 -25 57 -30 0 -14 -149 -5 -197 11 -24 7 -44
21 -46 31 -5 16 2 17 61 14 37 -2 93 -14 125 -26z m43 14 c18 -14 18 -14 -6
-3 -31 14 -36 19 -24 19 6 0 19 -7 30 -16z m-376 -24 c0 -5 -8 -10 -17 -10
-15 0 -16 2 -3 10 19 12 20 12 20 0z m1440 -10 c0 -5 -3 -10 -7 -10 -5 0 -30
-7 -57 -15 -55 -17 -55 -10 2 16 43 20 62 23 62 9z m-1474 -23 c4 -4 0 -7 -9
-7 -9 0 -18 4 -21 9 -7 10 20 9 30 -2z m630 -30 c11 -10 -11 -8 -43 4 -15 5
-49 10 -75 11 -46 0 -66 13 -31 20 20 4 139 -24 149 -35z m-583 26 c-7 -2 -19
-2 -25 0 -7 3 -2 5 12 5 14 0 19 -2 13 -5z m407 -3 c0 -5 -2 -10 -4 -10 -3 0
-8 5 -11 10 -3 6 -1 10 4 10 6 0 11 -4 11 -10z m837 -6 c-3 -3 -12 -4 -19 -1
-8 3 -5 6 6 6 11 1 17 -2 13 -5z m-1012 -16 c24 -11 34 -28 16 -28 -11 0 -59
39 -49 40 4 0 19 -5 33 -12z m119 -8 c-6 -6 -28 -13 -50 -16 -37 -5 -38 -4
-20 10 22 18 87 23 70 6z m276 -31 c0 -5 -4 -9 -10 -9 -5 0 -10 7 -10 16 0 8
5 12 10 9 6 -3 10 -10 10 -16z m1335 -79 c-18 -20 -35 -18 -35 3 0 8 3 8 9 -1
6 -10 10 -10 21 3 7 8 15 15 18 15 3 0 -3 -9 -13 -20z m-1340 0 c3 -5 2 -10
-4 -10 -5 0 -13 5 -16 10 -3 6 -2 10 4 10 5 0 13 -4 16 -10z m1388 -17 c-7 -2
-13 -9 -13 -15 0 -6 8 -7 17 -4 10 4 14 4 11 0 -4 -4 -3 -15 3 -25 13 -25 4
-24 -21 1 -25 25 -26 50 -2 49 10 0 12 -3 5 -6z m157 -62 c0 -6 -4 -12 -8 -15
-5 -3 -9 1 -9 9 0 8 4 15 9 15 4 0 8 -4 8 -9z m-230 -16 c11 -13 10 -14 -4 -9
-9 3 -16 10 -16 15 0 13 6 11 20 -6z m85 -51 c0 -11 -7 -19 -15 -19 -8 0 -26
-8 -40 -18 -13 -9 -19 -17 -12 -17 7 0 11 -4 7 -10 -10 -16 -54 30 -50 52 6
27 15 36 15 15 0 -9 6 -17 13 -17 9 0 8 -3 -2 -9 -7 -5 -9 -11 -4 -14 5 -4 20
1 32 10 17 11 22 23 19 44 -4 28 -3 28 16 15 12 -7 21 -22 21 -32z m70 26 c3
-5 -1 -10 -9 -10 -9 0 -16 5 -16 10 0 6 4 10 9 10 6 0 13 -4 16 -10z m-123 -7
c-6 -2 -10 -9 -7 -14 4 -5 -1 -6 -9 -3 -24 9 -19 24 7 23 12 0 16 -3 9 -6z
m70 -45 c-15 -15 -16 -42 -1 -33 6 4 5 -2 -3 -14 -18 -30 -31 -26 -23 6 7 28
23 53 33 53 3 0 1 -5 -6 -12z m-162 -22 c0 -3 -4 -8 -10 -11 -5 -3 -10 -1 -10
4 0 6 5 11 10 11 6 0 10 -2 10 -4z m-2680 -26 c0 -5 -2 -10 -4 -10 -3 0 -8 5
-11 10 -3 6 -1 10 4 10 6 0 11 -4 11 -10z m2905 1 c3 -5 1 -12 -5 -16 -5 -3
-10 1 -10 9 0 18 6 21 15 7z m-120 -10 c3 -5 1 -12 -5 -16 -5 -3 -10 1 -10 9
0 18 6 21 15 7z m64 -8 c-4 -22 3 -33 20 -33 11 0 23 -5 27 -12 5 -8 0 -9 -14
-6 -29 8 -39 -10 -17 -30 15 -14 17 -15 13 -2 -4 11 1 16 17 18 28 2 40 -22
19 -38 -10 -9 -14 -9 -14 -1 0 6 5 11 11 11 5 0 7 5 4 10 -10 16 -21 12 -33
-12 -6 -13 -11 -18 -11 -11 -1 7 -7 10 -15 7 -8 -3 -12 -12 -9 -20 3 -8 8 -12
12 -10 3 2 16 -1 28 -8 22 -11 22 -12 3 -24 -16 -9 -18 -9 -14 2 3 8 1 17 -5
21 -6 3 -11 1 -11 -6 0 -13 -60 71 -60 85 0 5 6 3 14 -3 10 -8 16 -8 25 3 7 9
8 17 2 20 -5 3 -11 1 -13 -5 -3 -10 -38 -2 -38 10 0 3 12 13 28 23 33 20 32
20 31 11z m111 -134 c0 -17 4 -28 10 -24 6 3 10 -1 10 -9 0 -23 -22 -15 -42
14 -12 17 -14 28 -6 37 17 21 28 15 28 -18z m-2970 15 c0 -8 -19 -13 -24 -6
-3 5 1 9 9 9 8 0 15 -2 15 -3z m30 -8 c0 -2 -7 -7 -16 -10 -8 -3 -12 -2 -9 4
6 10 25 14 25 6z m2930 -97 c0 -5 -4 -9 -8 -9 -5 0 -9 7 -9 15 0 8 4 12 9 9 4
-3 8 -9 8 -15z m-2932 -17 c2 -7 -1 -12 -8 -12 -6 0 -9 4 -6 9 4 5 1 12 -4 14
-6 3 -5 4 2 3 6 -1 14 -8 16 -14z m19 -89 c-3 -3 -10 -2 -16 2 -7 4 -7 10 2
20 10 11 13 11 15 -2 2 -8 1 -17 -1 -20z m1202 -68 c-26 -27 -49 -33 -49 -12
0 14 34 35 59 36 8 1 4 -8 -10 -24z m-1204 -25 c3 -5 1 -10 -4 -10 -6 0 -11 5
-11 10 0 6 2 10 4 10 3 0 8 -4 11 -10z m2675 -50 c12 -23 22 -54 23 -70 1 -17
7 -30 14 -30 22 0 33 -67 17 -105 -8 -19 -19 -35 -24 -35 -5 0 -7 -6 -4 -13 3
-8 -1 -27 -7 -43 -7 -16 -13 -35 -15 -42 -5 -25 -11 -23 -18 3 -7 27 -26 35
-26 10 0 -8 5 -15 11 -15 14 0 5 -68 -11 -84 -10 -9 -10 -6 -1 12 8 15 8 22 1
22 -6 0 -8 5 -5 10 3 6 1 10 -4 10 -7 0 -10 -22 -10 -55 1 -31 -1 -59 -5 -62
-5 -5 -10 25 -8 48 0 3 -8 10 -19 17 -16 10 -19 9 -19 -4 0 -8 -4 -13 -10 -9
-15 9 -7 58 13 78 9 9 18 17 20 16 7 -1 37 14 37 20 0 3 -14 7 -30 8 -18 1
-28 -2 -25 -7 4 -6 -5 -10 -18 -10 -14 0 -27 7 -31 15 -3 8 -12 12 -20 9 -24
-9 -38 29 -20 55 12 16 13 25 5 35 -8 10 -7 17 5 27 13 11 17 10 25 -2 7 -12
9 -12 9 1 0 13 1 13 10 0 11 -17 11 -17 15 28 2 29 1 31 -14 20 -14 -12 -15
-11 -2 5 16 21 16 21 35 2 13 -13 13 -20 3 -36 -10 -16 -9 -21 3 -29 11 -7 7
-10 -17 -10 -33 0 -44 -13 -20 -24 6 -3 3 -4 -8 -3 -14 1 -19 -3 -17 -15 2
-10 -2 -18 -8 -18 -7 0 -6 -5 2 -14 7 -8 17 -11 22 -8 5 3 6 0 2 -6 -3 -6 -2
-13 3 -16 5 -3 11 3 14 14 3 11 13 20 22 20 9 0 13 -4 10 -10 -3 -5 -4 -10 -1
-10 2 0 11 -3 20 -6 24 -9 20 15 -6 39 -17 14 -18 18 -6 14 10 -3 20 -2 23 3
4 6 -2 10 -12 10 -10 0 -14 4 -8 8 12 8 13 47 3 57 -4 4 -3 15 2 25 5 10 6 20
3 24 -4 4 3 9 15 13 12 3 22 10 22 15 0 5 -8 7 -18 4 -26 -9 -27 39 -1 75 11
16 17 29 13 29 -3 0 -1 7 6 15 17 20 17 20 40 -25z m-1535 -40 c13 -26 13 -30
-1 -44 -23 -24 -37 -19 -32 9 3 14 1 28 -3 31 -5 3 -9 -5 -9 -18 -1 -20 -2
-21 -11 -5 -5 9 -17 17 -25 17 -14 0 -14 2 0 15 8 8 22 15 30 15 9 0 16 5 16
11 0 17 19 0 35 -31z m-118 -40 c-3 -11 -2 -20 1 -20 4 0 7 -11 7 -25 0 -23
-3 -25 -29 -19 -20 4 -26 3 -22 -5 4 -6 4 -16 0 -22 -4 -8 -9 -7 -15 2 -7 11
-9 11 -9 -2 0 -15 -84 -64 -107 -62 -7 0 -10 -3 -7 -8 13 -22 -17 -6 -32 17
-11 16 -23 23 -33 19 -13 -5 -13 -4 -4 6 11 11 21 14 66 18 5 1 6 5 3 10 -3 4
6 13 20 20 33 14 39 14 25 -2 -6 -8 -8 -17 -4 -20 9 -9 23 -9 22 1 -4 26 2 52
12 47 6 -4 8 -13 5 -21 -3 -9 0 -11 12 -7 27 10 42 25 36 35 -4 6 -10 5 -15
-3 -7 -11 -9 -10 -9 3 0 9 5 20 10 23 6 3 10 3 10 -2 0 -4 11 -13 25 -20 20
-9 25 -8 25 3 0 8 -4 14 -8 14 -5 0 -9 7 -9 15 0 8 4 12 9 9 4 -3 8 0 8 5 0 6
3 11 6 11 4 0 4 -9 1 -20z m47 8 c-4 -6 0 -16 9 -23 15 -11 14 -13 -9 -24 -26
-12 -48 -6 -29 7 6 4 10 13 11 20 2 27 4 32 15 32 5 0 7 -5 3 -12z m-250 -73
c3 -8 1 -15 -3 -15 -5 0 -11 7 -15 15 -3 8 -1 15 3 15 5 0 11 -7 15 -15z m-61
-35 c-3 -11 -9 -20 -14 -20 -14 0 -11 28 4 33 6 3 13 6 14 6 0 1 -1 -8 -4 -19z
m-727 -53 c4 -4 -2 -7 -14 -7 -12 0 -22 4 -22 9 0 10 26 9 36 -2z m2454 9 c0
-3 -4 -8 -10 -11 -5 -3 -10 -1 -10 4 0 6 5 11 10 11 6 0 10 -2 10 -4z m-2487
-41 c-3 -9 -8 -14 -10 -11 -3 3 -2 9 2 15 9 16 15 13 8 -4z m2553 3 c4 -7 4
-10 -1 -6 -4 4 -14 3 -22 -4 -11 -8 -12 -7 -7 6 7 19 20 21 30 4z m-111 -8 c3
-6 -1 -7 -9 -4 -18 7 -21 14 -7 14 6 0 13 -4 16 -10z m-2071 -16 c3 -8 2 -12
-4 -9 -6 3 -10 10 -10 16 0 14 7 11 14 -7z m2145 -41 c-1 -5 -1 -20 0 -35 1
-21 5 -26 18 -21 13 5 15 2 10 -11 -4 -10 -7 -24 -7 -32 0 -8 -5 -14 -11 -14
-5 0 -8 4 -4 9 3 5 1 12 -5 16 -5 3 -10 19 -10 35 0 30 -15 49 -23 28 -2 -7
-8 -9 -13 -5 -5 5 -1 15 10 23 22 15 37 18 35 7z m783 -25 c-7 -7 -12 -8 -12
-2 0 14 12 26 19 19 2 -3 -1 -11 -7 -17z m-744 -1 c14 4 14 3 2 -5 -16 -12
-30 -7 -29 11 0 9 2 9 5 0 3 -7 13 -9 22 -6z m-185 -12 c4 -8 1 -17 -6 -21 -7
-4 -9 -4 -5 1 4 4 3 14 -3 22 -7 8 -8 13 -1 13 5 0 12 -7 15 -15z m24 -17 c-4
-14 -2 -18 9 -14 19 7 18 4 -4 -15 -18 -15 -19 -14 -19 22 0 21 4 36 9 33 6
-4 7 -15 5 -26z m956 -5 c-7 -2 -13 -9 -13 -14 0 -6 6 -7 13 -3 6 4 8 3 4 -1
-4 -5 -14 -10 -22 -11 -12 -2 -12 2 -5 17 6 10 16 19 23 18 9 0 9 -2 0 -6z
m-3303 -24 c0 -10 -10 -23 -22 -29 -21 -10 -21 -10 -5 3 21 17 22 28 2 21 -10
-4 -13 -2 -10 8 8 21 35 18 35 -3z m2257 1 c1 -11 -2 -22 -6 -24 -6 -4 -7 26
-2 42 3 8 7 -1 8 -18z m-1850 -42 c-3 -10 0 -18 7 -18 16 0 38 -38 30 -52 -4
-7 -3 -8 4 -4 7 4 12 5 12 2 0 -2 3 -13 6 -23 6 -15 4 -16 -7 -5 -7 6 -21 12
-31 12 -15 0 -17 3 -8 19 13 25 13 34 0 26 -5 -3 -10 -2 -10 2 0 5 -8 9 -19 9
-11 0 -17 -5 -14 -13 3 -7 1 -13 -3 -14 -5 0 -22 -3 -39 -5 -23 -3 -26 -2 -15
6 13 8 12 10 -4 10 -16 0 -15 3 8 21 15 12 35 19 45 16 14 -3 17 1 16 24 -1
24 1 27 12 17 8 -6 12 -20 10 -30z m2040 35 c-4 -3 -2 -12 5 -20 6 -8 13 -28
15 -46 2 -17 8 -36 13 -41 6 -6 9 -19 9 -30 -1 -18 -2 -18 -6 -3 -4 14 -8 16
-19 6 -8 -6 -14 -8 -14 -3 0 5 -5 2 -11 -6 -9 -13 -10 -12 -5 2 3 10 1 20 -4
23 -6 4 -10 12 -10 18 0 7 10 1 21 -13 16 -20 18 -20 10 -4 -7 15 -7 24 1 32
9 9 9 12 -2 12 -7 0 -11 3 -8 6 4 3 2 18 -2 34 -7 26 -5 40 8 40 3 0 2 -3 -1
-7z m-2087 -13 c0 -5 -5 -10 -11 -10 -5 0 -7 5 -4 10 3 6 8 10 11 10 2 0 4 -4
4 -10z m2957 -7 c-4 -3 -2 -12 4 -19 7 -8 7 -14 -1 -19 -6 -3 -8 -10 -5 -15 3
-4 -2 -10 -10 -14 -15 -5 -31 11 -21 21 3 4 6 0 6 -8 0 -12 2 -12 10 1 5 9 5
19 -1 27 -12 14 -4 33 13 33 6 0 8 -3 5 -7z m-1097 -14 c0 -4 -7 -9 -15 -13
-9 -3 -15 0 -15 8 0 7 7 13 15 13 8 0 15 -4 15 -8z m125 1 c3 -5 -3 -10 -14
-10 -12 0 -21 5 -21 10 0 6 6 10 14 10 8 0 18 -4 21 -10z m-95 -10 c0 -5 -2
-10 -4 -10 -3 0 -8 5 -11 10 -3 6 -1 10 4 10 6 0 11 -4 11 -10z m300 4 c0 -3
-6 -11 -13 -18 -13 -13 -37 -10 -37 5 0 4 7 6 15 3 8 -4 15 -1 15 5 0 6 5 11
10 11 6 0 10 -3 10 -6z m-48 -38 c7 4 8 2 4 -4 -5 -8 0 -12 13 -12 12 0 21 -4
21 -10 0 -5 -4 -10 -8 -10 -5 0 -13 -12 -19 -27 l-12 -28 5 26 c4 16 -1 32
-10 42 -9 8 -15 24 -15 34 1 17 2 17 6 0 2 -9 9 -14 15 -11z m-245 -10 c-3 -8
0 -20 8 -26 7 -6 13 -27 13 -47 0 -25 -3 -32 -9 -22 -5 8 -6 22 -3 32 3 9 -2
24 -10 33 -18 18 -21 44 -5 44 6 0 9 -6 6 -14z m23 -1 c0 -8 -4 -15 -10 -15
-5 0 -7 7 -4 15 4 8 8 15 10 15 2 0 4 -7 4 -15z m80 -52 c0 -1 -10 1 -22 6
-15 5 -24 18 -26 37 l-3 29 25 -34 c14 -19 26 -36 26 -38z m-136 15 c-9 -14
-23 2 -17 18 4 12 8 13 14 3 4 -7 5 -17 3 -21z m1506 -8 c-6 -11 -13 -20 -16
-20 -2 0 0 9 6 20 6 11 13 20 16 20 2 0 0 -9 -6 -20z m-1383 -48 c1 -11 -5
-23 -13 -26 -9 -3 -13 -10 -9 -15 3 -5 0 -13 -6 -17 -9 -5 -10 0 -7 14 7 24
-2 28 -20 10 -14 -14 -16 -32 -2 -23 5 3 7 0 5 -7 -3 -8 -14 -14 -24 -14 -15
0 -17 4 -11 16 5 9 16 22 24 29 8 7 12 20 9 29 -4 15 -3 15 6 2 9 -12 11 -10
11 11 0 14 -6 31 -12 39 -7 7 1 4 17 -7 17 -12 31 -30 32 -41z m961 33 c-3 -3
-9 2 -12 12 -6 14 -5 15 5 6 7 -7 10 -15 7 -18z m29 -1 c-3 -18 -1 -24 9 -20
7 3 18 -2 25 -10 11 -13 10 -15 -7 -12 -14 2 -19 -2 -18 -19 1 -15 -3 -20 -13
-16 -12 5 -12 7 -1 14 13 8 11 10 -14 13 -6 0 -13 8 -15 16 -4 13 -3 13 5 1 8
-11 12 -6 17 22 4 20 9 37 12 37 3 0 3 -12 0 -26z m-2894 -5 c-12 -12 -7 -39
8 -39 5 0 9 7 9 16 0 18 22 14 28 -6 3 -7 0 -10 -7 -6 -6 4 -9 2 -5 -7 6 -16
-32 -35 -58 -29 -10 2 -18 10 -18 18 0 8 -3 14 -7 15 -5 0 -16 2 -25 4 -18 3
-22 -9 -18 -49 1 -11 -3 -16 -9 -11 -6 3 -8 11 -5 17 4 6 -3 5 -16 -2 -18 -10
-24 -9 -31 1 -5 9 1 21 19 36 30 25 71 30 90 11 9 -9 12 -8 12 5 0 9 -4 17
-10 17 -5 0 -10 5 -10 10 0 6 14 10 32 10 24 0 29 -3 21 -11z m3052 -47 c17
-10 18 -11 3 -12 -14 0 -18 -8 -18 -36 0 -21 4 -33 10 -29 6 3 10 1 10 -5 0
-21 -25 -4 -28 18 -3 19 -6 21 -25 10 -12 -6 -23 -10 -25 -9 -2 2 -6 0 -9 -3
-4 -3 4 -6 16 -6 12 0 19 -4 16 -10 -3 -5 -2 -10 3 -10 5 0 9 -6 9 -13 0 -8
-6 -14 -14 -14 -7 0 -13 9 -13 19 0 10 -5 18 -11 18 -5 0 -7 -6 -3 -12 5 -10
4 -10 -6 -1 -16 15 -21 61 -8 69 6 4 14 1 18 -5 5 -9 10 -8 19 3 10 12 6 14
-28 12 -44 -3 -45 6 -2 27 25 12 29 12 39 -2 8 -13 10 -11 5 9 -4 22 -3 23 9
9 7 -8 22 -21 33 -27z m-1277 -23 c3 -8 1 -11 -3 -7 -4 4 -13 0 -20 -9 -10
-14 -12 -13 -9 8 1 13 3 26 3 27 2 9 25 -6 29 -19z m-1842 -4 c-3 -8 -1 -15 4
-15 15 0 12 -17 -5 -24 -11 -4 -14 0 -11 17 3 12 5 25 5 30 1 4 4 7 7 7 3 0 4
-7 0 -15z m47 -20 c4 -8 2 -17 -3 -20 -6 -4 -10 3 -10 14 0 25 6 27 13 6z
m3099 7 c3 8 6 7 10 -4 8 -20 -17 -18 -35 2 -10 12 -9 12 5 2 13 -10 17 -10
20 0z m38 -2 c0 -5 -2 -10 -4 -10 -3 0 -8 5 -11 10 -3 6 -1 10 4 10 6 0 11 -4
11 -10z m-1330 -10 c0 -5 -2 -10 -4 -10 -3 0 -8 5 -11 10 -3 6 -1 10 4 10 6 0
11 -4 11 -10z m-60 -22 c0 -6 -6 -5 -15 2 -8 7 -15 14 -15 16 0 2 7 1 15 -2 8
-4 15 -11 15 -16z m1170 2 c0 -5 -5 -10 -11 -10 -5 0 -7 5 -4 10 3 6 8 10 11
10 2 0 4 -4 4 -10z m49 -18 c8 -14 5 -18 -12 -19 -12 0 -16 1 -10 4 10 3 10
10 2 25 -8 15 -8 19 0 14 6 -4 15 -15 20 -24z m-1171 -6 c-2 -17 -7 -22 -20
-18 -10 2 -18 9 -18 14 0 6 7 8 15 4 9 -3 15 0 15 9 0 8 2 15 5 15 3 0 4 -11
3 -24z m-1881 8 c-3 -3 -12 -4 -19 -1 -8 3 -5 6 6 6 11 1 17 -2 13 -5z m2013
-14 c0 -23 -25 -27 -33 -6 -5 13 5 23 26 25 4 1 7 -8 7 -19z m1185 10 c3 -5 2
-10 -4 -10 -5 0 -13 5 -16 10 -3 6 -2 10 4 10 5 0 13 -4 16 -10z m-1263 -42
c-6 -6 -7 0 -4 19 5 21 7 23 10 9 2 -10 0 -22 -6 -28z m-27 2 c-3 -5 -12 -10
-20 -10 -8 0 -19 -8 -25 -17 -8 -12 -10 -13 -7 -3 2 8 14 21 28 27 29 15 32
16 24 3z m1012 -12 c-3 -8 -6 -5 -6 6 -1 11 2 17 5 13 3 -3 4 -12 1 -19z m168
3 c-3 -5 5 -17 17 -25 13 -9 17 -16 9 -16 -14 0 -40 28 -41 43 0 4 5 7 11 7 5
0 8 -4 4 -9z m109 -40 c-8 -9 -22 12 -17 26 6 15 7 14 13 -3 4 -10 6 -21 4
-23z m-1280 -3 c-1 -13 -3 -25 -3 -27 -1 -3 -6 0 -12 6 -12 12 -6 43 9 43 5 0
8 -10 6 -22z m1044 -15 c1 -24 0 -25 -9 -10 -5 9 -7 22 -4 27 9 15 10 13 13
-17z m117 6 c11 -17 -1 -21 -15 -4 -8 9 -8 15 -2 15 6 0 14 -5 17 -11z m-79
-27 c-1 -21 39 -29 60 -11 18 15 31 4 15 -14 -7 -9 -24 -13 -43 -11 -30 4 -31
3 -12 -11 15 -12 16 -16 6 -23 -11 -7 -9 -10 7 -15 36 -9 25 -33 -15 -34 -20
0 -33 2 -28 6 19 13 20 65 3 96 -15 27 -17 44 -5 39 8 -3 13 -13 12 -22z m50
5 c1 -7 -7 -14 -17 -14 -11 -1 -19 3 -19 8 0 6 5 7 10 4 6 -3 10 2 10 11 0 19
13 11 16 -9z m64 8 c0 -8 -4 -15 -10 -15 -5 0 -10 7 -10 15 0 8 5 15 10 15 6
0 10 -7 10 -15z m20 -20 c0 -8 -4 -15 -10 -15 -5 0 -7 7 -4 15 4 8 8 15 10 15
2 0 4 -7 4 -15z m-1210 1 c0 -2 -7 -9 -15 -16 -13 -11 -14 -10 -9 4 5 14 24
23 24 12z m1198 -35 c7 -1 10 -6 7 -11 -5 -8 -11 -7 -21 1 -11 9 -14 9 -14 0
0 -7 -4 -9 -10 -6 -16 10 -11 23 8 20 9 -2 23 -4 30 -4z m-1124 -15 c-10 -8
-21 -12 -24 -10 -5 6 21 24 34 24 6 0 1 -6 -10 -14z m1106 -20 c0 -3 -4 -8
-10 -11 -5 -3 -10 -1 -10 4 0 6 5 11 10 11 6 0 10 -2 10 -4z m-144 -46 c0 -10
-4 -16 -8 -14 -4 3 -8 12 -8 20 0 9 -5 12 -12 8 -7 -4 -8 -3 -4 4 10 16 32 4
32 -18z"/>
<path d="M1510 2915 c-10 -12 -10 -15 0 -15 10 0 9 -5 -2 -17 -8 -10 -15 -26
-15 -35 0 -10 -11 -48 -25 -85 -55 -147 -57 -159 -27 -197 16 -20 17 -26 6
-26 -8 0 -22 10 -30 23 -9 12 -16 17 -16 10 -1 -15 39 -53 55 -53 16 0 10 34
-11 67 -15 22 -15 28 -1 58 21 43 56 155 56 178 0 10 7 20 16 24 13 5 13 7 2
14 -11 7 -10 11 2 18 8 6 11 13 7 17 -4 4 -2 13 4 21 7 8 8 13 1 13 -5 0 -15
-7 -22 -15z"/>
<path d="M1246 2841 c-4 -6 -2 -11 4 -11 6 0 9 -4 6 -9 -4 -5 -2 -11 2 -13 5
-1 16 -39 25 -83 15 -79 46 -174 47 -145 0 8 -9 47 -20 85 -11 38 -20 90 -20
114 0 24 -3 41 -7 37 -4 -3 -12 3 -19 15 -7 14 -14 18 -18 10z"/>
<path d="M1070 2810 c-9 -6 -10 -10 -3 -10 6 0 15 5 18 10 8 12 4 12 -15 0z"/>
<path d="M1490 2593 c0 -6 5 -15 11 -18 6 -4 8 -13 5 -20 -6 -17 22 -41 34
-29 5 5 -3 23 -20 44 -16 19 -30 30 -30 23z"/>
<path d="M1820 2520 c0 -5 14 -10 32 -10 36 0 35 4 -4 14 -17 4 -28 2 -28 -4z"/>
<path d="M2050 2489 c-22 -6 -20 -7 13 -8 38 -1 47 3 25 11 -7 3 -24 1 -38 -3z"/>
<path d="M1725 2470 c11 -5 29 -9 40 -9 l20 0 -20 9 c-11 5 -29 9 -40 9 l-20
0 20 -9z"/>
<path d="M1673 2454 c-4 -11 -15 -26 -25 -35 -25 -23 -22 -30 8 -19 30 12 50
13 40 3 -9 -9 70 -33 109 -33 17 0 50 9 74 20 24 11 46 19 48 17 3 -4 -49 -31
-82 -43 -11 -3 -15 -8 -9 -10 6 -3 24 1 40 7 16 7 35 11 42 10 7 -1 20 12 30
28 15 28 21 30 57 25 39 -5 39 -5 -12 15 -40 15 -65 18 -105 13 -54 -7 -159 0
-190 13 -13 5 -20 1 -25 -11z m213 -46 c-11 -6 -34 -14 -52 -18 -30 -7 -32 -6
-21 11 8 14 23 19 52 19 34 -1 37 -2 21 -12z m-122 -7 c4 -5 -3 -7 -14 -4 -23
6 -26 13 -6 13 8 0 17 -4 20 -9z"/>
<path d="M1808 2463 c12 -2 30 -2 40 0 9 3 -1 5 -23 4 -22 0 -30 -2 -17 -4z"/>
<path d="M1878 2463 c7 -3 16 -2 19 1 4 3 -2 6 -13 5 -11 0 -14 -3 -6 -6z"/>
<path d="M1640 2334 c12 -19 120 -81 120 -69 0 2 -19 14 -42 26 -24 12 -54 31
-67 43 l-24 21 13 -21z"/>
<path d="M1808 2263 c7 -3 16 -2 19 1 4 3 -2 6 -13 5 -11 0 -14 -3 -6 -6z"/>
<path d="M1850 2255 c-15 -8 -19 -14 -10 -14 18 -1 46 16 40 23 -3 2 -16 -2
-30 -9z"/>
<path d="M2623 2517 c-42 -43 -79 -105 -69 -114 3 -3 10 6 17 19 6 15 18 25
28 23 9 -1 10 0 4 2 -20 7 -16 15 26 62 l39 43 26 -29 c15 -17 33 -38 41 -49
8 -10 15 -15 15 -10 0 14 -48 74 -69 85 -14 8 -26 2 -58 -32z"/>
<path d="M2710 2456 c0 -21 21 -66 32 -66 18 0 8 -87 -13 -114 -11 -14 -16
-26 -11 -26 20 0 40 38 44 85 4 39 1 54 -14 69 -10 11 -18 27 -18 37 0 10 -4
21 -10 24 -5 3 -10 -1 -10 -9z"/>
<path d="M1439 2380 l-24 -20 30 6 c39 9 47 13 40 25 -9 14 -20 11 -46 -11z"/>
<path d="M1227 2364 c-16 -16 -5 -24 36 -24 l42 -1 -34 -29 c-18 -15 -39 -26
-46 -24 -13 6 -41 -23 -32 -33 4 -3 13 -1 20 6 8 6 21 9 30 5 10 -3 22 4 34
23 9 15 21 30 25 33 8 6 5 36 -4 45 -3 3 -17 1 -31 -4 -17 -7 -27 -7 -29 0 -2
6 -7 7 -11 3z"/>
<path d="M2585 2349 c-4 -6 -13 -8 -21 -5 -8 3 -14 2 -14 -2 0 -10 60 -45 66
-39 3 3 -4 8 -16 12 -32 10 -18 30 22 30 20 0 34 3 31 8 -7 11 -61 8 -68 -4z"/>
<path d="M2677 2308 c2 -13 -6 -34 -17 -48 -16 -21 -20 -22 -20 -7 0 11 -5 15
-11 11 -6 -3 -14 -2 -18 3 -3 6 -18 13 -33 17 -26 6 -28 4 -28 -23 0 -16 5
-33 11 -37 6 -3 8 -17 5 -30 -10 -40 21 -29 75 28 35 37 49 59 49 80 0 15 -4
28 -9 28 -4 0 -7 -10 -4 -22z"/>
<path d="M2269 2283 c-13 -16 -12 -17 4 -4 9 7 17 15 17 17 0 8 -8 3 -21 -13z"/>
<path d="M1169 2273 c-13 -16 -12 -17 4 -4 9 7 17 15 17 17 0 8 -8 3 -21 -13z"/>
<path d="M2227 2206 c-40 -41 -74 -81 -74 -88 0 -14 -21 -150 -29 -186 -3 -13
-1 -21 4 -18 6 3 13 32 17 63 10 92 23 130 53 155 15 13 36 35 47 48 l20 25
-21 -17 c-45 -39 -35 -15 16 37 30 30 51 55 48 55 -4 0 -40 -33 -81 -74z m-30
-61 c-23 -22 -33 -18 -12 5 10 11 20 18 23 16 2 -3 -3 -12 -11 -21z"/>
<path d="M1500 2264 c0 -21 41 -54 68 -53 l27 1 -28 8 c-15 5 -36 19 -47 32
-11 13 -19 18 -20 12z"/>
<path d="M1570 2110 c-13 -8 -12 -10 3 -10 9 0 17 5 17 10 0 12 -1 12 -20 0z"/>
<path d="M1619 2078 c11 -11 18 -25 15 -29 -3 -5 4 -19 15 -31 12 -12 21 -18
21 -13 0 4 9 0 19 -9 11 -10 17 -24 15 -31 -6 -14 24 -55 40 -55 5 0 -1 11
-13 24 -13 14 -20 29 -17 35 7 11 -89 131 -105 131 -5 0 -1 -10 10 -22z"/>
<path d="M1430 1950 c-22 -14 -3 -25 23 -12 12 6 29 13 37 15 8 3 2 6 -15 6
-16 0 -37 -3 -45 -9z"/>
<path d="M2423 1933 c-13 -30 -34 -116 -29 -120 2 -2 14 31 27 72 25 74 26
102 2 48z"/>
<path d="M2105 1838 c-4 -18 -7 -38 -6 -45 1 -6 -3 -14 -9 -18 -5 -3 -10 -11
-10 -16 0 -17 21 2 32 29 14 33 18 82 8 82 -4 0 -11 -15 -15 -32z"/>
<path d="M1584 1834 c5 -10 11 -27 13 -36 3 -10 9 -18 14 -18 11 0 -10 58 -24
67 -7 4 -8 0 -3 -13z"/>
<path d="M1560 1809 c7 -11 14 -19 16 -16 7 7 -7 37 -17 37 -6 0 -5 -9 1 -21z"/>
<path d="M1621 1819 c-1 -9 7 -25 17 -36 9 -10 14 -14 10 -8 -4 6 -12 22 -17
36 -6 15 -10 18 -10 8z"/>
<path d="M1372 1795 c0 -16 2 -22 5 -12 2 9 2 23 0 30 -3 6 -5 -1 -5 -18z"/>
<path d="M1662 1795 c6 -14 15 -25 20 -25 5 0 1 11 -8 25 -9 14 -18 25 -20 25
-2 0 2 -11 8 -25z"/>
<path d="M1390 1791 c0 -25 6 -27 13 -6 4 8 2 17 -3 20 -6 4 -10 -3 -10 -14z"/>
<path d="M1336 1783 c-6 -14 -5 -15 5 -6 7 7 10 15 7 18 -3 3 -9 -2 -12 -12z"/>
<path d="M1710 1780 c14 -10 27 -16 30 -13 6 6 -30 33 -44 33 -6 0 0 -9 14
-20z"/>
<path d="M1286 1775 c-3 -8 -1 -15 4 -15 6 0 10 7 10 15 0 8 -2 15 -4 15 -2 0
-6 -7 -10 -15z"/>
<path d="M1760 1765 c7 -9 15 -13 17 -11 7 7 -7 26 -19 26 -6 0 -6 -6 2 -15z"/>
<path d="M1790 1772 c0 -12 19 -26 26 -19 2 2 -2 10 -11 17 -9 8 -15 8 -15 2z"/>
<path d="M2245 1710 c-21 -14 -25 -20 -12 -20 9 0 17 -4 17 -10 0 -5 -5 -10
-12 -10 -6 0 -8 -3 -5 -6 4 -4 18 1 32 10 14 9 25 15 25 12 0 -2 -36 -39 -80
-82 -44 -43 -80 -83 -80 -88 0 -9 162 142 192 179 15 19 15 21 0 21 -10 1 -24
4 -32 8 -8 3 -28 -3 -45 -14z m45 -1 c0 -5 5 -7 10 -4 6 3 10 2 10 -3 0 -5
-13 -9 -30 -9 -24 0 -27 3 -19 14 14 16 29 17 29 2z"/>
<path d="M2369 1633 c-13 -16 -12 -17 4 -4 9 7 17 15 17 17 0 8 -8 3 -21 -13z"/>
<path d="M1420 1569 c0 -5 5 -7 10 -4 6 3 10 8 10 11 0 2 -4 4 -10 4 -5 0 -10
-5 -10 -11z"/>
<path d="M1498 1573 c6 -2 18 -2 25 0 6 3 1 5 -13 5 -14 0 -19 -2 -12 -5z"/>
<path d="M1490 1550 c0 -5 5 -10 10 -10 6 0 10 5 10 10 0 6 -4 10 -10 10 -5 0
-10 -4 -10 -10z"/>
<path d="M1548 1553 c12 -2 30 -2 40 0 9 3 -1 5 -23 4 -22 0 -30 -2 -17 -4z"/>
<path d="M1645 1540 c11 -5 31 -9 45 -9 20 -1 22 1 10 9 -8 5 -28 9 -45 9 -26
0 -27 -2 -10 -9z"/>
<path d="M2263 1175 c-3 -9 -3 -18 -1 -21 3 -3 8 4 11 16 6 23 -1 27 -10 5z"/>
<path d="M1791 1104 c0 -11 3 -14 6 -6 3 7 2 16 -1 19 -3 4 -6 -2 -5 -13z"/>
<path d="M1830 1046 c0 -2 8 -10 18 -17 15 -13 16 -12 3 4 -13 16 -21 21 -21
13z"/>
<path d="M1900 970 c6 -11 13 -20 16 -20 2 0 0 9 -6 20 -6 11 -13 20 -16 20
-2 0 0 -9 6 -20z"/>
<path d="M1134 2496 c11 -9 24 -16 30 -16 12 0 7 5 -24 19 -24 11 -24 11 -6
-3z"/>
<path d="M1188 2473 c7 -3 16 -2 19 1 4 3 -2 6 -13 5 -11 0 -14 -3 -6 -6z"/>
<path d="M1230 2468 c0 -4 14 -8 30 -8 17 0 30 2 30 4 0 2 -13 6 -30 8 -16 3
-30 1 -30 -4z"/>
<path d="M2985 1980 c-3 -5 1 -10 10 -10 9 0 13 5 10 10 -3 6 -8 10 -10 10 -2
0 -7 -4 -10 -10z"/>
<path d="M2835 1570 c3 -5 8 -10 11 -10 2 0 4 5 4 10 0 6 -5 10 -11 10 -5 0
-7 -4 -4 -10z"/>
<path d="M2810 1551 c0 -7 -4 -9 -10 -6 -5 3 -10 -2 -10 -12 0 -16 1 -16 17 0
9 9 14 20 10 23 -4 4 -7 2 -7 -5z"/>
<path d="M2831 1524 c0 -11 3 -14 6 -6 3 7 2 16 -1 19 -3 4 -6 -2 -5 -13z"/>
<path d="M2848 1493 c7 -3 16 -2 19 1 4 3 -2 6 -13 5 -11 0 -14 -3 -6 -6z"/>
<path d="M2800 1446 c6 -17 5 -26 -3 -30 -9 -3 -9 -5 0 -5 6 -1 14 3 17 7 7
12 -4 52 -15 52 -5 0 -4 -11 1 -24z"/>
<path d="M2796 1392 c-2 -4 -1 -14 5 -22 6 -10 9 -11 9 -2 0 6 5 12 11 12 6 0
9 -14 6 -35 -3 -19 -1 -35 4 -35 5 0 9 5 9 11 0 5 4 8 9 5 5 -3 11 1 15 9 3 8
0 14 -7 12 -7 -1 -11 6 -11 16 1 9 -2 17 -8 17 -5 0 -6 5 -3 10 3 6 -3 10 -14
10 -11 0 -22 -4 -25 -8z"/>
<path d="M2755 1210 c-3 -6 1 -7 9 -4 18 7 21 14 7 14 -6 0 -13 -4 -16 -10z"/>
<path d="M2770 1185 c0 -8 4 -15 10 -15 5 0 7 7 4 15 -4 8 -8 15 -10 15 -2 0
-4 -7 -4 -15z"/>
<path d="M646 982 c-3 -6 -1 -14 5 -17 15 -10 25 3 12 16 -7 7 -13 7 -17 1z"/>
<path d="M550 969 c0 -5 5 -7 10 -4 6 3 10 8 10 11 0 2 -4 4 -10 4 -5 0 -10
-5 -10 -11z"/>
<path d="M3580 646 c7 -7 14 -6 21 1 9 9 7 12 -9 10 -14 -1 -18 -5 -12 -11z"/>
<path d="M780 3989 c0 -5 4 -8 9 -5 5 3 9 -9 10 -27 0 -17 5 -54 10 -82 l9
-50 2 48 c2 50 2 100 1 117 -1 13 -41 13 -41 -1z"/>
<path d="M1947 3980 c3 -11 7 -20 9 -20 2 0 4 9 4 20 0 11 -4 20 -9 20 -5 0
-7 -9 -4 -20z"/>
<path d="M1996 3985 c-4 -13 -2 -14 14 -5 23 13 26 20 6 20 -8 0 -16 -7 -20
-15z"/>
<path d="M2087 3985 c-4 -8 -2 -17 3 -20 6 -4 10 1 10 10 0 10 5 13 12 9 7 -4
8 -3 4 4 -10 16 -23 15 -29 -3z"/>
<path d="M3267 3985 c3 -10 14 -13 30 -11 17 4 31 -3 50 -25 15 -16 33 -29 42
-28 10 0 8 4 -6 9 -23 9 -32 30 -13 30 6 0 10 -4 10 -10 0 -5 3 -9 8 -9 20 3
31 -2 27 -13 -6 -18 21 -52 34 -43 6 3 8 11 5 17 -4 7 -2 8 5 4 6 -4 9 -11 7
-14 -2 -4 7 -12 20 -19 18 -8 22 -8 18 0 -5 9 -4 9 6 0 7 -6 19 -9 28 -6 10 4
13 2 8 -5 -4 -7 -4 -17 0 -23 4 -8 9 -7 14 2 9 14 35 0 77 -40 12 -12 27 -21
33 -21 6 0 8 -4 5 -10 -3 -5 1 -10 9 -10 8 0 21 -8 28 -18 7 -11 23 -24 36
-31 12 -6 22 -18 22 -26 0 -8 5 -15 10 -15 6 0 18 -13 29 -30 10 -16 20 -28
22 -25 3 2 11 -11 18 -30 7 -21 17 -33 23 -29 7 5 9 1 5 -9 -4 -11 -1 -17 8
-17 7 0 16 -13 20 -30 4 -16 11 -30 15 -30 5 0 7 -7 4 -15 -4 -8 -1 -15 7 -15
7 0 9 -3 6 -6 -4 -4 2 -15 14 -25 12 -11 16 -18 8 -21 -13 -4 15 -38 32 -38 5
0 9 132 9 325 l0 325 -370 0 c-319 -1 -368 -3 -363 -15z"/>
<path d="M247 3611 c-4 -17 -3 -21 5 -13 5 5 8 16 6 23 -3 8 -7 3 -11 -10z"/>
<path d="M115 3210 c-3 -5 -1 -10 4 -10 6 0 11 5 11 10 0 6 -2 10 -4 10 -3 0
-8 -4 -11 -10z"/>
<path d="M58 3057 c3 -13 7 -15 12 -7 4 7 13 10 19 6 6 -4 9 -2 6 6 -9 22 -43
17 -37 -5z"/>
<path d="M122 2480 c-13 -16 -19 -30 -15 -30 11 0 40 20 30 20 -4 0 -3 9 3 20
16 29 7 24 -18 -10z"/>
<path d="M161 2349 c-29 -11 -21 -22 19 -25 26 -2 28 0 19 17 -5 10 -11 19
-12 18 -1 0 -13 -5 -26 -10z"/>
<path d="M180 2247 c0 -6 9 -18 20 -25 16 -10 20 -10 20 1 0 6 -9 18 -20 25
-16 10 -20 10 -20 -1z"/>
<path d="M210 2187 c0 -8 7 -17 15 -21 8 -3 15 -2 15 3 0 5 -7 14 -15 21 -12
10 -15 10 -15 -3z"/>
<path d="M970 2119 c0 -5 5 -7 10 -4 6 3 10 8 10 11 0 2 -4 4 -10 4 -5 0 -10
-5 -10 -11z"/>
<path d="M1022 2086 c-15 -33 -11 -44 7 -22 7 8 11 23 9 32 -2 14 -6 11 -16
-10z"/>
<path d="M1045 2071 c-3 -5 -1 -12 5 -16 5 -3 10 1 10 9 0 18 -6 21 -15 7z"/>
<path d="M451 2043 c-1 -12 -7 -24 -13 -26 -10 -4 -10 -6 0 -6 15 -1 26 23 19
41 -3 7 -6 3 -6 -9z"/>
<path d="M205 2041 c-3 -5 -1 -12 5 -16 5 -3 10 1 10 9 0 18 -6 21 -15 7z"/>
<path d="M1026 2027 c3 -10 9 -15 12 -12 3 3 0 11 -7 18 -10 9 -11 8 -5 -6z"/>
<path d="M985 2020 c3 -5 8 -10 11 -10 2 0 4 5 4 10 0 6 -5 10 -11 10 -5 0 -7
-4 -4 -10z"/>
<path d="M173 2003 c1 -26 12 -30 21 -7 3 8 2 13 -3 9 -5 -3 -11 1 -14 7 -3 7
-4 3 -4 -9z"/>
<path d="M1115 1980 c3 -5 8 -10 11 -10 2 0 4 5 4 10 0 6 -5 10 -11 10 -5 0
-7 -4 -4 -10z"/>
<path d="M450 1959 c0 -5 5 -7 10 -4 6 3 10 8 10 11 0 2 -4 4 -10 4 -5 0 -10
-5 -10 -11z"/>
<path d="M3970 1930 c0 -5 5 -10 11 -10 5 0 7 5 4 10 -3 6 -8 10 -11 10 -2 0
-4 -4 -4 -10z"/>
<path d="M456 1917 c3 -10 9 -15 12 -12 3 3 0 11 -7 18 -10 9 -11 8 -5 -6z"/>
<path d="M180 1881 c0 -29 15 -33 18 -5 1 13 -3 24 -8 24 -6 0 -10 -9 -10 -19z"/>
<path d="M711 1884 c0 -11 3 -14 6 -6 3 7 2 16 -1 19 -3 4 -6 -2 -5 -13z"/>
<path d="M465 1879 c-4 -6 -5 -12 -2 -15 2 -3 7 2 10 11 7 17 1 20 -8 4z"/>
<path d="M735 1870 c3 -5 8 -10 11 -10 2 0 4 5 4 10 0 6 -5 10 -11 10 -5 0 -7
-4 -4 -10z"/>
<path d="M300 1830 c14 -10 27 -17 29 -14 6 5 -31 33 -44 33 -5 1 1 -8 15 -19z"/>
<path d="M910 1810 c0 -5 5 -10 11 -10 5 0 7 5 4 10 -3 6 -8 10 -11 10 -2 0
-4 -4 -4 -10z"/>
<path d="M1140 1768 c-9 -31 -14 -38 -21 -27 -5 8 -9 12 -10 9 0 -3 -2 -13 -4
-22 -6 -29 25 -30 37 0 6 15 12 30 12 34 2 11 16 22 16 11 0 -5 6 -10 14 -10
12 0 12 4 -1 24 -22 33 -31 29 -43 -19z"/>
<path d="M330 1788 c0 -9 -6 -19 -12 -21 -8 -3 -7 -6 4 -6 22 -1 29 11 17 29
-7 13 -9 12 -9 -2z"/>
<path d="M865 1780 c-3 -5 -1 -10 4 -10 6 0 11 5 11 10 0 6 -2 10 -4 10 -3 0
-8 -4 -11 -10z"/>
<path d="M976 1773 c-4 -4 7 -19 25 -34 l32 -26 -26 -5 c-15 -3 -27 -1 -27 3
0 5 -5 9 -10 9 -6 0 -6 -7 2 -19 7 -12 21 -18 40 -17 15 1 28 -1 28 -6 0 -4 4
-8 9 -8 20 0 -12 62 -40 79 -16 10 -26 21 -22 24 3 4 4 7 1 7 -2 0 -8 -3 -12
-7z"/>
<path d="M390 1757 c14 -8 27 -12 30 -10 7 6 -23 23 -40 23 -8 0 -4 -6 10 -13z"/>
<path d="M906 1743 c12 -10 20 -26 19 -35 -2 -10 1 -18 6 -18 5 0 9 14 9 30 0
17 -4 30 -9 30 -5 0 -18 3 -28 6 -15 5 -15 3 3 -13z"/>
<path d="M385 1724 c24 -23 71 -54 82 -54 12 0 -30 34 -67 54 -34 19 -35 19
-15 0z"/>
<path d="M3983 1722 c-7 -13 -8 -24 -1 -37 9 -15 8 -17 -5 -12 -15 6 -31 -16
-20 -27 11 -11 24 -6 17 6 -5 7 -2 9 8 6 11 -5 15 4 17 38 2 49 1 52 -16 26z"/>
<path d="M250 1716 c0 -8 7 -16 15 -20 13 -4 14 -2 5 14 -13 23 -20 26 -20 6z"/>
<path d="M897 1723 c-12 -12 -7 -42 10 -63 22 -25 32 -25 30 -1 0 11 -5 17
-10 14 -13 -8 -28 19 -21 40 6 18 2 22 -9 10z"/>
<path d="M1170 1721 c0 -6 4 -13 10 -16 6 -3 7 1 4 9 -7 18 -14 21 -14 7z"/>
<path d="M486 1657 c3 -10 9 -15 12 -12 3 3 0 11 -7 18 -10 9 -11 8 -5 -6z"/>
<path d="M1100 1660 c0 -5 5 -10 11 -10 5 0 7 5 4 10 -3 6 -8 10 -11 10 -2 0
-4 -4 -4 -10z"/>
<path d="M210 1650 c0 -5 7 -7 15 -4 8 4 15 8 15 10 0 2 -7 4 -15 4 -8 0 -15
-4 -15 -10z"/>
<path d="M455 1650 c3 -5 8 -10 11 -10 2 0 4 5 4 10 0 6 -5 10 -11 10 -5 0 -7
-4 -4 -10z"/>
<path d="M289 1630 c-1 -5 -1 -17 -1 -25 0 -29 2 -36 11 -31 5 3 7 15 4 26 -3
11 0 20 6 20 6 0 11 5 11 10 0 6 -7 10 -15 10 -8 0 -16 -4 -16 -10z"/>
<path d="M927 1618 c-2 -7 -1 -22 4 -33 6 -16 8 -14 8 13 1 33 -4 41 -12 20z"/>
<path d="M1147 1614 c6 -15 23 -19 23 -5 0 5 -7 11 -14 14 -10 4 -13 1 -9 -9z"/>
<path d="M3947 1596 c-4 -10 -5 -21 -2 -24 9 -9 17 6 13 25 -3 17 -4 17 -11
-1z"/>
<path d="M1040 1592 c0 -12 19 -26 26 -19 2 2 -2 10 -11 17 -9 8 -15 8 -15 2z"/>
<path d="M235 1540 c3 -5 10 -10 16 -10 5 0 9 5 9 10 0 6 -7 10 -16 10 -8 0
-12 -4 -9 -10z"/>
<path d="M670 1544 c0 -8 31 -33 41 -34 4 0 10 7 13 16 4 10 2 14 -6 11 -7 -2
-21 0 -30 5 -10 5 -18 6 -18 2z"/>
<path d="M405 1529 c-4 -6 -5 -12 -2 -15 2 -3 7 2 10 11 7 17 1 20 -8 4z"/>
<path d="M227 1498 c2 -52 4 -55 14 -23 9 31 6 55 -8 55 -4 0 -7 -15 -6 -32z"/>
<path d="M340 1504 c0 -16 -4 -23 -11 -18 -8 4 -8 0 0 -15 7 -11 13 -21 14
-21 2 0 4 18 5 40 2 22 0 40 -3 40 -3 0 -5 -12 -5 -26z"/>
<path d="M3344 1515 c-3 -8 -4 -20 -2 -27 3 -7 7 -1 10 15 6 29 1 36 -8 12z"/>
<path d="M260 1509 c0 -5 5 -7 10 -4 6 3 10 8 10 11 0 2 -4 4 -10 4 -5 0 -10
-5 -10 -11z"/>
<path d="M740 1516 c0 -2 7 -7 16 -10 8 -3 12 -2 9 4 -6 10 -25 14 -25 6z"/>
<path d="M660 1425 c0 -8 2 -15 4 -15 2 0 6 7 10 15 3 8 1 15 -4 15 -6 0 -10
-7 -10 -15z"/>
<path d="M687 1383 c-3 -3 1 -12 9 -20 8 -9 18 -13 21 -10 3 3 -1 13 -10 21
-8 8 -17 12 -20 9z"/>
<path d="M265 1369 c-4 -6 -5 -12 -2 -15 2 -3 7 2 10 11 7 17 1 20 -8 4z"/>
<path d="M702 1321 c2 -7 7 -12 11 -12 12 1 9 15 -3 20 -7 2 -11 -2 -8 -8z"/>
<path d="M397 1272 c-24 -27 -21 -36 4 -11 11 11 19 23 16 25 -2 2 -11 -4 -20
-14z"/>
<path d="M685 1281 c-3 -5 -1 -12 5 -16 5 -3 10 -1 10 5 0 6 5 8 12 4 7 -4 8
-3 4 4 -9 14 -23 15 -31 3z"/>
<path d="M3933 1250 c0 -16 1 -30 3 -30 1 0 7 14 13 30 8 23 7 30 -3 30 -7 0
-13 -12 -13 -30z"/>
<path d="M343 1225 c0 -22 2 -30 4 -17 2 12 2 30 0 40 -3 9 -5 -1 -4 -23z"/>
<path d="M777 1129 c4 -13 8 -18 11 -10 2 7 -1 18 -6 23 -8 8 -9 4 -5 -13z"/>
<path d="M485 1130 c-3 -5 -15 -10 -26 -10 -18 0 -25 -11 -13 -22 7 -8 64 21
64 33 0 12 -17 12 -25 -1z"/>
<path d="M761 1084 c0 -11 3 -14 6 -6 3 7 2 16 -1 19 -3 4 -6 -2 -5 -13z"/>
<path d="M345 1060 c3 -5 8 -10 11 -10 2 0 4 5 4 10 0 6 -5 10 -11 10 -5 0 -7
-4 -4 -10z"/>
<path d="M450 1060 c0 -5 5 -10 11 -10 5 0 7 5 4 10 -3 6 -8 10 -11 10 -2 0
-4 -4 -4 -10z"/>
<path d="M340 1016 c0 -15 4 -25 9 -22 10 7 9 31 -2 42 -4 4 -7 -5 -7 -20z"/>
<path d="M379 984 c-11 -13 -10 -15 2 -14 25 4 39 0 39 -11 0 -5 -5 -7 -11 -4
-6 4 -19 -2 -30 -13 -18 -20 -18 -21 4 -28 12 -4 25 -11 29 -17 10 -17 38 11
31 31 -6 15 -5 15 10 3 21 -17 22 -5 2 15 -8 9 -15 11 -15 6 0 -5 -11 -14 -25
-20 -15 -7 -25 -8 -25 -2 0 6 6 10 14 10 19 0 28 14 20 33 -8 23 -31 28 -45
11z"/>
<path d="M336 955 c4 -8 7 -15 9 -15 2 0 5 7 9 15 3 9 0 15 -9 15 -9 0 -12 -6
-9 -15z"/>
<path d="M290 952 c0 -4 9 -8 19 -8 11 0 17 4 15 8 -3 4 -12 8 -20 8 -8 0 -14
-4 -14 -8z"/>
<path d="M235 920 c-11 -5 -14 -9 -7 -9 7 -1 10 -7 7 -13 -4 -7 0 -4 9 6 13
16 18 17 32 5 15 -12 17 -12 12 1 -6 18 -26 22 -53 10z"/>
<path d="M397 869 c7 -7 15 -10 18 -7 3 3 -2 9 -12 12 -14 6 -15 5 -6 -5z"/>
<path d="M315 860 c3 -5 8 -10 11 -10 2 0 4 5 4 10 0 6 -5 10 -11 10 -5 0 -7
-4 -4 -10z"/>
</g>
</svg>
